<?xml version="1.0" encoding="UTF-8"?>
<svg id="Layer_2" data-name="Layer 2" xmlns="http://www.w3.org/2000/svg" viewBox="0 0 264.34 273.19">
  <defs>
    <style>
      .cls-1 {
        stroke: #ffffff;
      }

      .cls-1, .cls-2, .cls-3, .cls-4, .cls-5, .cls-6 {
        fill: none;
        stroke-miterlimit: 10;
        stroke-width: 8px;
      }

      .cls-2 {
        stroke: #ffffff;
      }

      .cls-3 {
        stroke: #ffffff;
      }

      .cls-4 {
        stroke: #ffffff;
      }

      .cls-5 {
        stroke: #ffffff;
      }

      .cls-6 {
        stroke: #ffffff;
      }
    </style>
  </defs>
  <g id="Layer_1-2" data-name="Layer 1">
    <path class="cls-3" d="M215.28,104.39c-4.18,31.81-20.84,60.66-46.29,80.19h0s-95.96,73.64-95.96,73.64c-19.53-25.45-28.16-57.62-23.97-89.43,4.18-31.81,20.83-60.65,46.29-80.19h0S191.31,14.96,191.31,14.96c19.53,25.45,28.16,57.62,23.97,89.43Z"/>
    <path class="cls-1" d="M199.26,77.91c6.95,31.32,1.17,64.12-16.07,91.18h0s-64.98,102.02-64.98,102.02c-27.06-17.24-46.17-44.52-53.11-75.84-6.95-31.32-1.17-64.12,16.07-91.18h0S146.14,2.07,146.14,2.07c27.06,17.24,46.17,44.52,53.11,75.84Z"/>
    <path class="cls-6" d="M175.14,58.51c17.24,27.06,23.03,59.86,16.09,91.18h0s-26.17,118.09-26.17,118.09c-31.32-6.94-58.61-26.04-75.85-53.1-17.24-27.06-23.03-59.86-16.09-91.18h0S99.29,5.41,99.29,5.41c31.32,6.94,58.61,26.04,75.85,53.1Z"/>
    <path class="cls-4" d="M145.84,48.52c25.46,19.53,42.11,48.37,46.3,80.18h0s15.8,119.92,15.8,119.92c-31.81,4.19-63.98-4.43-89.44-23.96-25.46-19.53-42.11-48.37-46.3-80.18h0S56.4,24.56,56.4,24.56c31.81-4.19,63.98,4.43,89.44,23.96Z"/>
    <path class="cls-5" d="M114.89,49.16c30.6,9.64,56.12,31.05,70.93,59.51h0s55.86,107.29,55.86,107.29c-28.46,14.82-61.64,17.72-92.24,8.08-30.6-9.64-56.12-31.05-70.93-59.51h0S22.66,57.23,22.66,57.23c28.46-14.82,61.64-17.72,92.24-8.08Z"/>
    <path class="cls-2" d="M86.03,60.34c32.05-1.4,63.35,9.99,87.01,31.66h0s89.19,81.71,89.19,81.71c-21.67,23.66-51.86,37.74-83.91,39.14-32.05,1.4-63.35-9.99-87.01-31.66h0S2.12,99.48,2.12,99.48c21.67-23.66,51.86-37.74,83.91-39.14Z"/>
  </g>
</svg>