<svg width="220" height="220" viewBox="0 0 220 220" fill="none" xmlns="http://www.w3.org/2000/svg">
<path fill-rule="evenodd" clip-rule="evenodd" d="M120.752 12.5042L118.355 11L110.632 23.3041C103.385 19.3416 95.5562 16.3803 87.3486 14.5616L84.586 13.9495L81.3848 28.3946C73.0652 27.078 64.5279 26.9457 56.0258 28.0656L53.2203 28.4351L55.1536 43.109C46.8886 44.7178 38.8239 47.513 31.2201 51.4725L28.7108 52.7792L35.545 65.9092C28.3264 70.249 21.7023 75.636 15.9109 81.9592L14 84.0456L51.4583 118.362C50.0606 122.964 49.0323 127.701 48.3975 132.532C45.3353 155.779 51.6424 179.289 65.9147 197.888L67.6374 200.132L79.5976 190.954C85.2391 197.427 91.8426 203.101 99.2466 207.748L101.643 209.252L109.366 196.948C116.614 200.91 124.443 203.872 132.651 205.69L135.413 206.303L138.616 191.851C146.933 193.167 155.467 193.298 163.966 192.179L166.771 191.809L164.839 177.143C173.104 175.534 181.168 172.739 188.771 168.779L191.281 167.473L184.447 154.347C191.669 150.007 198.296 144.618 204.089 138.293L206 136.206L168.533 101.882C169.931 97.2797 170.96 92.5428 171.594 87.7124C174.656 64.4652 168.349 40.9557 154.077 22.3573L152.354 20.1124L140.395 29.2904C134.754 22.8203 128.153 17.1495 120.752 12.5042ZM163.869 97.6088C164.801 94.1331 165.509 90.5819 165.983 86.9751L165.983 86.9742C168.726 66.1532 163.439 45.1061 151.272 28.0769L143.976 33.6752C151.597 43.6387 157.085 55.2062 159.935 67.6697C162.055 76.9382 162.647 86.3944 161.77 95.6861L163.869 97.6088ZM160.856 102.523L162.02 103.59C161.497 105.082 160.931 106.557 160.324 108.014L159.909 107.217C160.267 105.661 160.583 104.096 160.856 102.523ZM156.431 90.7948L156.009 90.4074C154.45 77.3469 149.982 64.6717 142.78 53.3674C140.09 49.1447 137.065 45.1873 133.747 41.525L139.487 37.1206C146.617 46.4447 151.751 57.269 154.418 68.9314C156.071 76.1608 156.732 83.5123 156.431 90.7948ZM119.258 61.9331C116.705 60.7115 114.096 59.6138 111.441 58.6434L112.594 57.7583C114.884 59.0455 117.108 60.439 119.258 61.9331ZM106.046 62.783C117.435 66.385 128.02 72.4435 136.997 80.6656L141.305 84.6119C142.792 86.8878 144.172 89.2454 145.438 91.6782L148.153 96.893C148.769 99.5284 149.257 102.204 149.614 104.91L150.382 110.743C150.06 113.431 149.604 116.112 149.013 118.777L147.77 124.388C146.579 126.769 145.27 129.101 143.843 131.375L140.679 136.416C138.66 138.317 136.539 140.123 134.32 141.826L113.941 157.465C102.557 153.862 91.9767 147.805 83.0028 139.586L78.6446 135.594C77.1707 133.334 75.802 130.995 74.546 128.581L71.8498 123.401C71.2289 120.75 70.7366 118.058 70.3778 115.334L69.6138 109.535C69.9367 106.839 70.3936 104.149 70.9861 101.475L72.2301 95.8613C73.4201 93.4812 74.7292 91.15 76.1559 88.8769L79.3408 83.8027C81.3508 81.9115 83.4628 80.1138 85.6717 78.4185L106.046 62.783ZM104.892 56.5351L107.024 54.8993C104.553 53.7472 102.018 52.7137 99.4249 51.8051L97.5363 54.8139C100.015 55.2832 102.469 55.8577 104.892 56.5351ZM94.2878 59.9893C95.9251 60.2538 97.5521 60.5672 99.1668 60.9287L88.6162 69.0252L94.2878 59.9893ZM91.4415 53.8788L93.8399 50.0578C90.2196 49.0701 86.5547 48.3345 82.8702 47.8488L81.6681 53.2729C84.9477 53.2942 88.2102 53.4979 91.4415 53.8788ZM80.4138 58.9331C82.9834 58.912 85.543 59.0107 88.0851 59.2263L76.1267 78.2781L80.4138 58.9331ZM75.8373 53.4273L77.1954 47.2989C71.9469 46.9722 66.685 47.1468 61.482 47.8165L62.4623 55.2562C66.8424 54.3118 71.3126 53.6967 75.8373 53.4273ZM63.2041 60.8869C66.9273 60.0624 70.7211 59.4924 74.5606 59.1885L68.3522 87.2035C67.8618 87.7873 67.3792 88.3771 66.9046 88.9728L63.2041 60.8869ZM56.9358 56.6356L55.8943 48.7311C49.1878 50.0658 42.6251 52.236 36.3656 55.2282L40.4883 63.1489C45.7318 60.4374 51.2417 58.2535 56.9358 56.6356ZM43.1012 68.1689C47.7594 65.7611 52.6421 63.7982 57.6835 62.3108L62.0759 95.6486C61.1944 96.9954 60.3499 98.3658 59.5435 99.7581L43.1012 68.1689ZM38.1632 70.9393C32.3159 74.4883 26.89 78.7737 22.0309 83.7278L53.4587 112.52C54.3247 110.253 55.2827 108.025 56.3297 105.841L38.1632 70.9393ZM56.1223 122.635C55.1908 126.111 54.4824 129.663 54.0084 133.27L54.0083 133.271C51.2657 154.092 56.553 175.139 68.72 192.168L76.0162 186.569C68.3988 176.607 62.9132 165.042 60.0637 152.582C57.944 143.313 57.352 133.857 58.2283 124.565L56.1223 122.635ZM59.1432 117.728L57.9708 116.654C58.493 115.166 59.057 113.695 59.662 112.243L60.0851 113.056C59.7292 114.605 59.4151 116.163 59.1432 117.728ZM63.5673 129.456C63.2668 136.739 63.9272 144.091 65.5806 151.321C68.2469 162.98 73.3792 173.801 80.5058 183.123L86.2448 178.719C82.9304 175.059 79.9077 171.104 77.2193 166.885C70.0171 155.58 65.5493 142.905 63.9907 129.844L63.5673 129.456ZM100.658 158.279C102.828 159.789 105.072 161.197 107.384 162.497L108.548 161.604C105.867 160.624 103.234 159.515 100.658 158.279ZM115.095 163.713L112.954 165.357C115.429 166.511 117.97 167.547 120.568 168.457L122.463 165.438C119.98 164.968 117.522 164.392 115.095 163.713ZM128.557 166.373L126.158 170.196C129.778 171.183 133.444 171.919 137.129 172.404L138.331 166.979C135.051 166.958 131.789 166.754 128.557 166.373ZM139.586 161.319C137.016 161.34 134.456 161.241 131.914 161.025L143.873 141.972L139.586 161.319ZM144.162 166.825L142.804 172.954C148.05 173.28 153.31 173.105 158.511 172.435L157.531 164.997C153.152 165.941 148.685 166.555 144.162 166.825ZM156.789 159.367C153.068 160.19 149.276 160.76 145.439 161.063L151.652 133.026C152.138 132.447 152.617 131.862 153.087 131.271L156.789 159.367ZM163.057 163.618L164.098 171.521C170.804 170.186 177.366 168.016 183.625 165.024L179.504 157.107C174.26 159.818 168.751 162.001 163.057 163.618ZM176.89 152.087C172.232 154.494 167.35 156.456 162.309 157.943L157.916 124.595C158.795 123.251 159.637 121.884 160.442 120.495L176.89 152.087ZM181.828 149.318L163.656 114.414C164.705 112.227 165.665 109.995 166.532 107.724L197.969 136.524C193.108 141.481 187.679 145.768 181.828 149.318ZM125.711 160.262C124.07 159.997 122.438 159.683 120.82 159.32L131.398 151.203L125.711 160.262ZM102.529 166.223C96.0638 162.352 90.1247 157.673 84.8554 152.307C89.0572 158.248 94.0551 163.653 99.753 168.353L102.529 166.223ZM104.402 171.919L107.936 169.207C111.022 170.773 114.21 172.163 117.487 173.364L114.522 178.088C111.024 176.285 107.64 174.227 104.402 171.919ZM119.676 180.522L123.023 175.19C127.265 176.435 131.569 177.354 135.9 177.949L134.279 185.263C129.281 184.14 124.392 182.554 119.676 180.522ZM139.843 186.315L141.565 178.542C147.47 178.969 153.395 178.801 159.25 178.046L160.415 186.89C153.51 187.56 146.601 187.355 139.843 186.315ZM117.449 54.0327C123.943 57.9193 129.905 62.6213 135.192 68.017C130.979 62.0442 125.962 56.6127 120.239 51.8916L117.449 54.0327ZM115.59 48.3253L112.042 51.0482C109.109 49.5605 106.084 48.232 102.978 47.0726L103.081 46.9699L102.562 46.8066L105.478 42.1612C108.974 43.9626 112.354 46.0199 115.59 48.3253ZM100.325 39.7264L96.9744 45.064C92.7332 43.8183 88.4294 42.8993 84.099 42.3039L85.7213 34.9833C90.7194 36.1072 95.6089 37.6941 100.325 39.7264ZM60.7428 42.2057C66.6 41.4506 72.5271 41.2829 78.434 41.7102L80.1579 33.9309C73.3967 32.8899 66.4847 32.6841 59.5766 33.3548L60.7428 42.2057ZM148.07 79.1579C145.9 71.1829 142.53 63.5069 138.007 56.4082C135.405 52.3244 132.469 48.5055 129.242 44.9826L124.838 48.3619C134.822 56.848 142.723 67.3868 148.07 79.1579ZM120.272 44.7327L125.248 40.9137C121.33 37.1871 117.059 33.8578 112.502 30.9711L108.497 37.3518C112.585 39.4868 116.524 41.9508 120.272 44.7327ZM103.367 34.8797L107.618 28.1067C101.735 24.9217 95.447 22.4396 88.8764 20.7462L86.9457 29.4581C92.5756 30.7228 98.0764 32.5373 103.367 34.8797ZM71.9361 141.117C74.1056 149.084 77.474 156.752 81.9922 163.844C84.5921 167.925 87.5263 171.741 90.7504 175.262L95.1535 171.883C85.1781 163.404 77.282 152.876 71.9361 141.117ZM99.7201 175.512L94.7435 179.331C98.6641 183.06 102.937 186.392 107.497 189.281L111.504 182.897C107.412 180.761 103.471 178.296 99.7201 175.512ZM116.634 185.369L112.381 192.145C118.264 195.33 124.552 197.812 131.123 199.506L133.055 190.788C127.425 189.524 121.924 187.711 116.634 185.369ZM84.0966 187.502L90.2023 182.816C94.5705 187.056 99.3595 190.827 104.488 194.074L99.8842 201.409C94.0083 197.435 88.7126 192.753 84.0966 187.502ZM135.896 32.7429L129.79 37.4287C125.423 33.192 120.637 29.4229 115.51 26.1777L120.114 18.8428C125.988 22.8149 131.281 27.4948 135.896 32.7429Z" fill="white"/>
</svg>
